<svg width="455" height="338" viewBox="0 0 455 338" fill="none" xmlns="http://www.w3.org/2000/svg">
<path d="M119.745 185.08C119.745 185.08 104.687 139.26 90.3144 111.437C74.3906 80.6125 53.506 52.1152 53.506 52.1152C53.506 52.1152 157.544 62.0217 229.99 87.0787C320.639 118.431 454.549 187.677 454.549 187.677C454.549 187.677 335.529 169.799 262.416 169.749C205.492 169.71 119.745 185.08 119.745 185.08Z" fill="#FDDA24"/>
<path d="M102.351 186.272C102.351 186.272 90.3392 139.56 77.827 110.853C63.9645 79.0474 44.999 49.2385 44.999 49.2385C44.999 49.2385 148.16 65.9648 218.802 95.7313C307.194 132.977 436.26 210.878 436.26 210.878C436.26 210.878 318.673 185.213 245.722 180.355C188.923 176.573 102.351 186.272 102.351 186.272Z" fill="#009A6E"/>
</svg>
