<svg width="280" height="418" viewBox="0 0 280 418" fill="none" xmlns="http://www.w3.org/2000/svg">
<path d="M357.063 227.393C357.063 227.393 375.354 182.253 391.767 155.108C409.952 125.034 433.018 97.5425 433.018 97.5425C433.018 97.5425 326.787 102.204 251.62 123.64C157.567 150.463 17.1239 213.057 17.1239 213.057C17.1239 213.057 139.083 201.169 213.283 204.817C271.054 207.657 357.063 227.393 357.063 227.393Z" fill="#FDDA24"/>
<path d="M356.218 213.123C356.218 213.123 357.555 158.845 363.94 124.81C371.014 87.103 384.123 50.9731 384.123 50.9731C384.123 50.9731 276.427 83.4696 207.263 126.379C120.721 180.07 0.241315 284.994 0.241315 284.994C0.241315 284.994 121.344 240.508 199.246 225.391C259.9 213.62 356.218 213.123 356.218 213.123Z" fill="#009A6E"/>
</svg>
