<svg width="24" height="24" viewBox="0 0 24 24" fill="none" xmlns="http://www.w3.org/2000/svg">
<g clip-path="url(#clip0_1_505)">
<path d="M12 0.959961C5.90848 0.959961 0.960022 5.90842 0.960022 12C0.960022 18.0915 5.90848 23.04 12 23.04C18.0916 23.04 23.04 18.0915 23.04 12C23.04 5.90842 18.0916 0.959961 12 0.959961ZM12 1.91996C17.5727 1.91996 22.08 6.42724 22.08 12C22.08 17.5727 17.5727 22.08 12 22.08C6.4273 22.08 1.92002 17.5727 1.92002 12C1.92002 6.42724 6.4273 1.91996 12 1.91996ZM16.3622 6.73684C16.0339 6.73684 15.665 6.81288 15.2335 6.9684C14.5634 7.20984 6.68197 10.5562 5.78533 10.9368C5.27269 11.1548 4.31815 11.5601 4.31815 12.5268C4.31815 13.1676 4.69363 13.626 5.43283 13.89C5.83027 14.0316 6.77422 14.3177 7.3219 14.4684C7.55422 14.5322 7.8011 14.565 8.05502 14.565C8.55182 14.565 9.05178 14.4412 9.44346 14.2228C9.4401 14.3034 9.4423 14.3849 9.4519 14.4665C9.51094 14.9705 9.82172 15.4446 10.2825 15.735C10.584 15.925 13.0461 17.5748 13.4138 17.8368C13.9303 18.206 14.5012 18.4012 15.0638 18.4012C16.139 18.4012 16.4997 17.2911 16.6735 16.7578C16.9255 15.9835 17.8691 9.68739 17.9756 8.57715C18.0481 7.81635 17.731 7.18986 17.1272 6.9009C16.9011 6.79194 16.643 6.73684 16.3622 6.73684ZM16.3622 7.69684C16.4942 7.69684 16.6121 7.71867 16.7119 7.76715C16.9389 7.87611 17.0544 8.11901 17.0194 8.48621C16.9032 9.69725 15.9619 15.8443 15.7613 16.4606C15.5894 16.9876 15.4084 17.4412 15.0638 17.4412C14.7191 17.4412 14.3426 17.3204 13.9716 17.055C13.6005 16.79 11.1366 15.1377 10.7944 14.9221C10.4944 14.733 10.1769 14.2616 10.6238 13.8056C10.9919 13.4302 13.7846 10.7198 14.0231 10.4812C14.2007 10.3031 14.1177 10.0884 13.9435 10.0884C13.8835 10.0884 13.8116 10.1137 13.7372 10.1746C13.4454 10.4132 9.37672 13.1358 9.0244 13.3546C8.79112 13.4996 8.4299 13.604 8.05502 13.604C7.89518 13.604 7.73335 13.5849 7.57783 13.5421C7.03639 13.3929 6.12011 13.1149 5.75627 12.9853C5.40635 12.8605 5.27908 12.7409 5.27908 12.5268C5.27908 12.2225 5.70863 12.0124 6.16127 11.82C6.63935 11.6169 14.9117 8.10401 15.5588 7.87121C15.8583 7.76273 16.1323 7.69684 16.3622 7.69684Z" fill="#F2F2F2"/>
</g>
<defs>
<clipPath id="clip0_1_505">
<rect width="24" height="24" fill="white"/>
</clipPath>
</defs>
</svg>
