<svg width="24" height="24" viewBox="0 0 24 24" fill="none" xmlns="http://www.w3.org/2000/svg">
<path d="M4.31998 1.91992C3.00022 1.91992 1.91998 3.00015 1.91998 4.31992V19.6799C1.91998 20.9997 3.00022 22.0799 4.31998 22.0799H12.3994C12.4512 22.0885 12.5041 22.0885 12.5559 22.0799H15.2794C15.3312 22.0885 15.3841 22.0885 15.4359 22.0799H19.68C20.9998 22.0799 22.08 20.9997 22.08 19.6799V4.31992C22.08 3.00015 20.9998 1.91992 19.68 1.91992H4.31998ZM4.31998 2.87992H19.68C20.4809 2.87992 21.12 3.51905 21.12 4.31992V19.6799C21.12 20.4808 20.4809 21.1199 19.68 21.1199H15.84V14.3999H17.6737L18.3459 11.0399H15.84V10.0799C15.84 9.81233 15.8654 9.79141 15.9553 9.73305C16.0451 9.67469 16.3228 9.59992 16.8 9.59992H18.24V6.89711L17.9662 6.7668C17.9662 6.7668 16.8637 6.23992 15.36 6.23992C14.28 6.23992 13.3927 6.67022 12.825 7.37992C12.2572 8.08962 12 9.03992 12 10.0799V11.0399H10.56V14.3999H12V21.1199H4.31998C3.51911 21.1199 2.87998 20.4808 2.87998 19.6799V4.31992C2.87998 3.51905 3.51911 2.87992 4.31998 2.87992ZM15.36 7.19992C16.3579 7.19992 16.9859 7.41998 17.28 7.53648V8.63992H16.8C16.2476 8.63992 15.8049 8.68562 15.4322 8.92773C15.0594 9.16985 14.88 9.62944 14.88 10.0799V11.9999H17.174L16.8862 13.4399H14.88V21.1199H12.96V13.4399H11.52V11.9999H12.96V10.0799C12.96 9.19992 13.1827 8.47022 13.575 7.97992C13.9672 7.48962 14.52 7.19992 15.36 7.19992Z" fill="#F2F2F2"/>
</svg>
