<svg width="24" height="24" viewBox="0 0 24 24" fill="none" xmlns="http://www.w3.org/2000/svg">
<path d="M4.31998 1.91992C3.00022 1.91992 1.91998 3.00015 1.91998 4.31992V19.6799C1.91998 20.9997 3.00022 22.0799 4.31998 22.0799H19.68C20.9998 22.0799 22.08 20.9997 22.08 19.6799V4.31992C22.08 3.00015 20.9998 1.91992 19.68 1.91992H4.31998ZM4.31998 2.87992H19.68C20.4809 2.87992 21.12 3.51905 21.12 4.31992V19.6799C21.12 20.4808 20.4809 21.1199 19.68 21.1199H4.31998C3.51911 21.1199 2.87998 20.4808 2.87998 19.6799V4.31992C2.87998 3.51905 3.51911 2.87992 4.31998 2.87992ZM7.19998 3.83992C7.3987 4.32616 8.35294 6.42287 8.63998 7.19711V9.11992H9.59998V7.19992L11.04 3.83992H9.8878L9.11998 5.75992L8.35217 3.83992H7.19998ZM12 5.27992C11.5171 5.27992 11.1499 5.41207 10.8806 5.73367C10.6728 5.97127 10.5609 6.35236 10.5609 6.85492L10.56 7.54867C10.56 8.04835 10.6587 8.39393 10.8665 8.62961C11.1363 8.94977 11.5733 9.11992 12 9.11992C12.4267 9.11992 12.8716 8.94979 13.1419 8.62867C13.3463 8.39347 13.44 8.04835 13.44 7.54867V6.85211C13.44 6.34907 13.3238 5.97127 13.1194 5.73367C12.8496 5.41207 12.4267 5.27992 12 5.27992ZM13.92 5.27992V8.08211C13.92 8.39891 13.9672 8.61418 14.0344 8.75242C14.1448 8.97946 14.3658 9.09578 14.6831 9.10586C15.1204 9.12026 15.4488 8.83672 15.84 8.45992V9.11992H16.8V5.27992H15.84V7.85992C15.6216 8.11864 15.3702 8.34836 15.1725 8.34836C15.0414 8.34836 14.904 8.28808 14.88 8.15992V5.27992H13.92ZM12 6.05711C12.2649 6.05711 12.48 6.2767 12.48 6.54742V7.89461C12.48 8.16485 12.2649 8.38492 12 8.38492C11.735 8.38492 11.52 8.16533 11.52 7.89461V6.54742C11.52 6.27718 11.735 6.05711 12 6.05711ZM11.9953 10.5599C11.9953 10.5599 8.77476 10.5601 6.62436 10.7137C6.32196 10.7473 5.66871 10.7521 5.08311 11.3521C4.62231 11.8033 4.47373 12.8399 4.47373 12.8399C4.47373 12.8399 4.31998 13.5746 4.31998 14.789V15.9262C4.31998 17.1406 4.47373 17.8752 4.47373 17.8752C4.47373 17.8752 4.62231 18.9117 5.08311 19.3677C5.66871 19.9629 6.43637 19.9438 6.77717 20.0062C8.00597 20.1214 12 20.1599 12 20.1599C12 20.1599 15.2252 20.1551 17.3756 20.0015C17.678 19.9679 18.3313 19.963 18.9169 19.363C19.3777 18.9118 19.5262 17.8752 19.5262 17.8752C19.5262 17.8752 19.68 17.1406 19.68 15.9262V14.789C19.68 13.5746 19.5262 12.8399 19.5262 12.8399C19.5262 12.8399 19.3777 11.8033 18.9169 11.3521C18.3313 10.7521 17.678 10.7473 17.3756 10.7137C15.2252 10.5601 12.0047 10.5599 12.0047 10.5599H11.9953ZM5.75998 12.4799H8.63998V13.4399H7.67998V18.2399H6.71998V13.4399H5.75998V12.4799ZM12 12.4799H12.96V14.5827C13.32 14.1603 13.5116 13.9151 13.9772 13.9199C14.342 13.9247 14.6353 14.1315 14.7553 14.5059C14.8177 14.7075 14.88 15.0675 14.88 15.5427V16.8627C14.8752 17.2851 14.8316 17.4721 14.774 17.6737C14.654 18.0481 14.342 18.2399 13.9772 18.2399C13.6556 18.2399 13.2624 18.0143 12.96 17.6399V18.2399H12V12.4799ZM8.63998 13.9199H9.59998V17.2274C9.62398 17.3666 9.72456 17.4187 9.84936 17.4187C10.0414 17.4187 10.3488 17.2077 10.56 16.9293V13.9199H11.52V18.2399H10.56V17.5827C10.1808 17.9955 9.72913 18.2399 9.37873 18.2399C9.07153 18.2399 8.85621 18.106 8.75061 17.8612C8.68821 17.7076 8.63998 17.4765 8.63998 17.1309V13.9199ZM16.814 13.9199C17.2892 13.9199 17.6685 14.0735 17.9325 14.3615C18.1293 14.5727 18.24 14.8993 18.24 15.3505V16.3199H16.32V17.1843C16.32 17.4051 16.536 17.5874 16.8 17.5874C17.064 17.5874 17.28 17.4051 17.28 17.1843V16.7999H18.24C18.24 17.0447 18.211 17.2509 18.2062 17.3277C18.1726 17.4957 18.0964 17.6499 17.9812 17.7843C17.722 18.0915 17.3328 18.2399 16.8384 18.2399C16.3392 18.2399 15.9645 18.0957 15.6909 17.8077C15.4893 17.6013 15.36 17.2848 15.36 16.8384V15.3693C15.36 14.9181 15.4751 14.5727 15.6815 14.3615C15.9551 14.0735 16.3292 13.9199 16.814 13.9199ZM16.8 14.6155C16.536 14.6155 16.32 14.7931 16.32 15.0187V15.6524H17.28V15.0187C17.28 14.7931 17.064 14.6155 16.8 14.6155ZM13.5459 14.7599C13.4715 14.7599 13.363 14.7973 13.2544 14.8537C13.2001 14.8819 13.1455 14.9147 13.095 14.9502C13.0445 14.9858 12.9984 15.0243 12.96 15.0627V17.1599C12.9984 17.1983 13.0445 17.2339 13.095 17.2649C13.2464 17.3581 13.4343 17.414 13.5459 17.414C13.6431 17.414 13.7193 17.3903 13.7775 17.3334C13.7969 17.3144 13.8147 17.2915 13.83 17.2649C13.8606 17.2118 13.8826 17.1429 13.8975 17.0559C13.9123 16.9688 13.92 16.8631 13.92 16.7371V15.4227C13.92 15.2967 13.9123 15.1916 13.8975 15.1059C13.8678 14.9344 13.8082 14.8382 13.7137 14.7927C13.6665 14.77 13.6107 14.7599 13.5459 14.7599Z" fill="#F2F2F2"/>
</svg>
