<svg width="24" height="24" viewBox="0 0 24 24" fill="none" xmlns="http://www.w3.org/2000/svg">
<path d="M4.31998 1.91992C2.99978 1.91992 1.91998 2.99972 1.91998 4.31992V19.6799C1.91998 21.0001 2.99978 22.0799 4.31998 22.0799H19.68C21.0002 22.0799 22.08 21.0001 22.08 19.6799V4.31992C22.08 2.99972 21.0002 1.91992 19.68 1.91992H4.31998ZM4.31998 2.87992H19.68C20.4823 2.87992 21.12 3.51757 21.12 4.31992V19.6799C21.12 20.4823 20.4823 21.1199 19.68 21.1199H4.31998C3.51763 21.1199 2.87998 20.4823 2.87998 19.6799V4.31992C2.87998 3.51757 3.51763 2.87992 4.31998 2.87992ZM12.5006 4.79992C12.3735 4.79993 12.2515 4.85038 12.1615 4.94019C12.0716 5.03 12.0209 5.15185 12.0206 5.27898C12.0206 5.27898 12.0153 7.61909 12.0103 9.96461C12.0078 11.1374 12.0047 12.3113 12.0028 13.1952C12.0009 14.0791 12 14.6384 12 14.6849C12 15.5562 11.2087 16.2684 10.3069 16.2684C9.41224 16.2684 8.69811 15.5533 8.69811 14.6587C8.69811 13.7641 9.41224 13.0499 10.3069 13.0499C10.3372 13.0499 10.3982 13.0599 10.5028 13.0724C10.5702 13.0805 10.6386 13.0742 10.7034 13.0539C10.7682 13.0336 10.828 12.9998 10.8787 12.9547C10.9295 12.9096 10.9701 12.8542 10.9979 12.7923C11.0257 12.7303 11.0401 12.6631 11.04 12.5952V10.5787C11.04 10.4566 10.9934 10.3391 10.9098 10.25C10.8262 10.161 10.7119 10.1073 10.59 10.0996C10.5152 10.0949 10.4211 10.0855 10.3069 10.0855C7.78709 10.0855 5.73373 12.1389 5.73373 14.6587C5.73373 17.1784 7.78709 19.2318 10.3069 19.2318C12.8266 19.2318 14.88 17.1784 14.88 14.6587V10.3152C15.5782 10.8737 16.4484 11.2274 17.4094 11.2274C17.5404 11.2274 17.6651 11.2197 17.7844 11.2087C17.9036 11.1977 18.0143 11.1425 18.095 11.0541C18.1756 10.9656 18.2203 10.8502 18.2203 10.7305V8.48898C18.2204 8.36763 18.1745 8.25076 18.0919 8.16188C18.0092 8.073 17.896 8.0187 17.775 8.00992C16.2656 7.90163 15.0623 6.72579 14.9053 5.23023C14.893 5.11222 14.8374 5.00293 14.7493 4.92347C14.6612 4.844 14.5468 4.79999 14.4281 4.79992H12.5006ZM12.9797 5.75992H14.0747C14.4235 7.3433 15.6608 8.55084 17.2603 8.85367V10.229C16.2336 10.1769 15.3319 9.6647 14.8012 8.85742C14.7445 8.77103 14.6613 8.70526 14.5642 8.66991C14.4671 8.63456 14.3611 8.63151 14.2621 8.66121C14.1631 8.69092 14.0763 8.75179 14.0147 8.83477C13.953 8.91776 13.9198 9.01842 13.92 9.1218V14.6587C13.92 16.6595 12.3078 18.2718 10.3069 18.2718C8.30599 18.2718 6.69373 16.6595 6.69373 14.6587C6.69373 12.7384 8.1917 11.2142 10.08 11.0915V12.1359C8.77746 12.2571 7.73811 13.3258 7.73811 14.6587C7.73811 16.0719 8.89364 17.2284 10.3069 17.2284C11.7129 17.2284 12.96 16.1214 12.96 14.6849C12.96 14.7084 12.9609 14.081 12.9628 13.1971C12.9647 12.3132 12.9678 11.1392 12.9703 9.96648C12.9748 7.86077 12.9788 6.16754 12.9797 5.75992Z" fill="#F2F2F2"/>
</svg>
