<svg width="170" height="70" viewBox="0 0 170 70" fill="none" xmlns="http://www.w3.org/2000/svg">
<path d="M49.6334 32.8167C51.8446 33.9223 51.8446 37.0777 49.6334 38.1833L28.3416 48.8292C26.3469 49.8265 24 48.376 24 46.1459V24.8541C24 22.624 26.3469 21.1735 28.3416 22.1708L49.6334 32.8167Z" fill="#D9D9D9"/>
<path fill-rule="evenodd" clip-rule="evenodd" d="M50 65.5208C45.4756 67.7486 40.3839 69 35 69C16.2223 69 1 53.7777 1 35C1 16.2223 16.2223 1 35 1C53.7777 1 69 16.2223 69 35C69 38.8496 68.3602 42.5498 67.1812 46H68.2365C69.3807 42.5409 70 38.8428 70 35C70 15.67 54.33 0 35 0C15.67 0 0 15.67 0 35C0 54.33 15.67 70 35 70C40.368 70 45.4537 68.7915 50 66.6318V65.5208Z" fill="white"/>
<path d="M50.952 50.824C50.28 50.824 49.704 50.9467 49.224 51.192C48.7547 51.4373 48.3653 51.768 48.056 52.184C47.7573 52.6 47.5387 53.08 47.4 53.624C47.2613 54.1573 47.192 54.7173 47.192 55.304C47.192 55.9333 47.2667 56.5253 47.416 57.08C47.5653 57.6347 47.7947 58.12 48.104 58.536C48.4133 58.9413 48.808 59.2667 49.288 59.512C49.768 59.7467 50.3387 59.864 51 59.864C51.8 59.864 52.472 59.6987 53.016 59.368C53.56 59.0373 53.912 58.5947 54.072 58.04H55.592C55.3467 58.9787 54.8293 59.7307 54.04 60.296C53.2507 60.8507 52.2267 61.128 50.968 61.128C50.0933 61.128 49.3307 60.984 48.68 60.696C48.0293 60.408 47.4853 60.008 47.048 59.496C46.6213 58.984 46.3013 58.376 46.088 57.672C45.8747 56.968 45.768 56.1947 45.768 55.352C45.768 54.52 45.8747 53.752 46.088 53.048C46.3013 52.344 46.6267 51.736 47.064 51.224C47.5013 50.7013 48.0453 50.296 48.696 50.008C49.3467 49.7093 50.1147 49.56 51 49.56C51.6187 49.56 52.1733 49.6347 52.664 49.784C53.1653 49.9333 53.5973 50.1467 53.96 50.424C54.3333 50.6907 54.6373 51.016 54.872 51.4C55.1067 51.7733 55.2773 52.1893 55.384 52.648H53.976C53.816 52.0933 53.4693 51.6507 52.936 51.32C52.4133 50.9893 51.752 50.824 50.952 50.824ZM57.4314 52.568H59.2554L61.9914 56.792L64.6794 52.568H66.4714V61H65.1274V54.072L62.1514 58.84H61.7674L58.7754 54.072V61H57.4314V52.568ZM72.3309 52.472C73.0029 52.472 73.5842 52.5787 74.0749 52.792C74.5655 53.0053 74.9762 53.304 75.3069 53.688C75.6482 54.072 75.8989 54.5307 76.0589 55.064C76.2295 55.5867 76.3149 56.1627 76.3149 56.792C76.3149 57.4213 76.2295 58.0027 76.0589 58.536C75.8989 59.0587 75.6482 59.512 75.3069 59.896C74.9762 60.2693 74.5602 60.5627 74.0589 60.776C73.5575 60.9893 72.9709 61.096 72.2989 61.096C71.6269 61.096 71.0402 60.9893 70.5389 60.776C70.0482 60.5627 69.6322 60.2693 69.2909 59.896C68.9602 59.512 68.7095 59.0587 68.5389 58.536C68.3789 58.0027 68.2989 57.4213 68.2989 56.792C68.2989 56.1627 68.3789 55.5867 68.5389 55.064C68.7095 54.5307 68.9602 54.072 69.2909 53.688C69.6322 53.304 70.0535 53.0053 70.5549 52.792C71.0562 52.5787 71.6482 52.472 72.3309 52.472ZM72.2989 59.896C72.7575 59.896 73.1522 59.816 73.4829 59.656C73.8242 59.496 74.1015 59.2773 74.3149 59C74.5389 58.712 74.6989 58.3813 74.7949 58.008C74.9015 57.6347 74.9549 57.2293 74.9549 56.792C74.9549 56.3653 74.9015 55.9653 74.7949 55.592C74.6989 55.208 74.5389 54.8773 74.3149 54.6C74.1015 54.312 73.8242 54.088 73.4829 53.928C73.1522 53.768 72.7575 53.688 72.2989 53.688C71.8402 53.688 71.4455 53.768 71.1149 53.928C70.7842 54.088 70.5069 54.312 70.2829 54.6C70.0695 54.8773 69.9095 55.208 69.8029 55.592C69.7069 55.9653 69.6589 56.3653 69.6589 56.792C69.6589 57.2293 69.7069 57.6347 69.8029 58.008C69.9095 58.3813 70.0695 58.712 70.2829 59C70.5069 59.2773 70.7842 59.496 71.1149 59.656C71.4455 59.816 71.8402 59.896 72.2989 59.896ZM84.3585 52.568V53.768H81.4625V61H80.1025V53.768H77.2065V52.568H84.3585ZM86.932 64.04H85.572V52.568H86.868L86.932 53.864C87.22 53.4053 87.6093 53.064 88.1 52.84C88.6013 52.6053 89.14 52.4827 89.716 52.472C90.3667 52.472 90.916 52.584 91.364 52.808C91.8227 53.0213 92.2013 53.3253 92.5 53.72C92.8093 54.104 93.0387 54.5627 93.188 55.096C93.3373 55.6187 93.412 56.184 93.412 56.792C93.412 57.4107 93.3373 57.9813 93.188 58.504C93.0387 59.0267 92.8093 59.48 92.5 59.864C92.1907 60.248 91.8013 60.552 91.332 60.776C90.8627 60.9893 90.3027 61.096 89.652 61.096C89.012 61.096 88.468 60.9947 88.02 60.792C87.572 60.5893 87.2093 60.3227 86.932 59.992V64.04ZM89.54 59.896C89.9987 59.896 90.3827 59.816 90.692 59.656C91.012 59.4853 91.268 59.2613 91.46 58.984C91.6627 58.696 91.8067 58.3653 91.892 57.992C91.988 57.6187 92.0413 57.2187 92.052 56.792C92.052 56.3653 92.004 55.9653 91.908 55.592C91.8227 55.208 91.6787 54.8773 91.476 54.6C91.2733 54.3227 91.0067 54.104 90.676 53.944C90.356 53.7733 89.9667 53.688 89.508 53.688C88.964 53.688 88.4947 53.8373 88.1 54.136C87.7053 54.424 87.4067 54.792 87.204 55.24C87.0867 55.4853 87.0067 55.7413 86.964 56.008C86.9213 56.264 86.9 56.5307 86.9 56.808C86.9 57.128 86.9213 57.4267 86.964 57.704C87.0067 57.9707 87.0867 58.2267 87.204 58.472C87.4067 58.8773 87.7 59.2187 88.084 59.496C88.4787 59.7627 88.964 59.896 89.54 59.896ZM96.2218 57.288C96.2538 57.6613 96.3284 58.008 96.4457 58.328C96.5738 58.6373 96.7444 58.9093 96.9578 59.144C97.1711 59.3787 97.4324 59.5653 97.7418 59.704C98.0618 59.832 98.4298 59.896 98.8458 59.896C99.0484 59.896 99.2564 59.88 99.4698 59.848C99.6938 59.8053 99.9018 59.7413 100.094 59.656C100.286 59.56 100.456 59.4373 100.606 59.288C100.755 59.1387 100.867 58.9573 100.942 58.744H102.334C102.238 59.1493 102.072 59.5013 101.838 59.8C101.614 60.0987 101.342 60.344 101.022 60.536C100.712 60.728 100.366 60.872 99.9818 60.968C99.5978 61.0533 99.2084 61.096 98.8138 61.096C98.1418 61.096 97.5551 60.9893 97.0538 60.776C96.5631 60.5627 96.1524 60.2693 95.8218 59.896C95.4911 59.512 95.2458 59.0587 95.0858 58.536C94.9258 58.0027 94.8458 57.4213 94.8458 56.792C94.8458 56.1627 94.9311 55.5867 95.1018 55.064C95.2831 54.5307 95.5391 54.072 95.8698 53.688C96.2004 53.304 96.6058 53.0053 97.0858 52.792C97.5658 52.5787 98.1364 52.472 98.7977 52.472C99.4698 52.472 100.051 52.6053 100.542 52.872C101.032 53.1387 101.427 53.4907 101.726 53.928C102.024 54.3547 102.232 54.8187 102.35 55.32C102.478 55.8213 102.531 56.2853 102.51 56.712C102.51 56.808 102.504 56.904 102.494 57C102.494 57.096 102.488 57.192 102.478 57.288H96.2218ZM101.134 56.104C101.112 55.3893 100.888 54.808 100.462 54.36C100.035 53.912 99.4644 53.688 98.7498 53.688C98.3551 53.688 98.0084 53.752 97.7098 53.88C97.4111 54.008 97.1604 54.184 96.9578 54.408C96.7551 54.632 96.5951 54.8933 96.4778 55.192C96.3604 55.48 96.2858 55.784 96.2538 56.104H101.134ZM110.562 52.568V53.768H107.666V61H106.306V53.768H103.41V52.568H110.562ZM111.775 52.568H113.167V55.784H115.023C115.503 55.784 115.946 55.8213 116.351 55.896C116.756 55.96 117.108 56.0987 117.407 56.312C117.695 56.5253 117.914 56.7973 118.063 57.128C118.223 57.448 118.303 57.848 118.303 58.328C118.292 58.808 118.207 59.208 118.047 59.528C117.887 59.8373 117.684 60.0987 117.439 60.312C117.151 60.5573 116.788 60.7333 116.351 60.84C115.924 60.9467 115.487 61 115.039 61H111.775V52.568ZM113.967 59.816C114.372 59.816 114.778 59.8107 115.183 59.8C115.588 59.7787 115.94 59.6933 116.239 59.544C116.442 59.4587 116.602 59.3147 116.719 59.112C116.847 58.8987 116.916 58.6533 116.927 58.376C116.927 58.0453 116.858 57.784 116.719 57.592C116.591 57.4 116.42 57.2613 116.207 57.176C116.004 57.08 115.775 57.0213 115.519 57C115.263 56.9787 115.012 56.968 114.767 56.968H113.167V59.816H113.967ZM124.385 52.568H127.649C128.193 52.568 128.657 52.6053 129.041 52.68C129.435 52.7547 129.766 52.888 130.033 53.08C130.267 53.24 130.449 53.4533 130.577 53.72C130.715 53.9867 130.785 54.3013 130.785 54.664C130.785 55.5067 130.406 56.1093 129.649 56.472C130.225 56.6 130.641 56.8507 130.897 57.224C131.153 57.5973 131.281 58.024 131.281 58.504C131.27 58.952 131.195 59.32 131.057 59.608C130.918 59.8853 130.721 60.1307 130.465 60.344C130.219 60.5467 129.915 60.7067 129.553 60.824C129.19 60.9413 128.779 61 128.321 61H124.385V52.568ZM125.777 53.768V56.168H126.945C127.211 56.168 127.483 56.1627 127.761 56.152C128.038 56.1307 128.283 56.0827 128.497 56.008C128.763 55.9227 128.987 55.784 129.169 55.592C129.35 55.4 129.446 55.1707 129.457 54.904C129.457 54.5947 129.387 54.3707 129.249 54.232C129.121 54.0827 128.961 53.976 128.769 53.912C128.577 53.8373 128.369 53.7947 128.145 53.784C127.921 53.7733 127.713 53.768 127.521 53.768H125.777ZM125.777 59.816H128.001C128.246 59.816 128.481 59.8 128.705 59.768C128.939 59.736 129.142 59.6773 129.313 59.592C129.483 59.496 129.622 59.368 129.729 59.208C129.835 59.048 129.894 58.8453 129.905 58.6C129.905 58.28 129.83 58.0293 129.681 57.848C129.531 57.656 129.329 57.5173 129.073 57.432C128.859 57.368 128.619 57.3307 128.353 57.32C128.086 57.3093 127.809 57.304 127.521 57.304L125.777 57.32V59.816ZM134.463 61H133.135V52.568H134.495V59.032C134.569 58.8827 134.671 58.7227 134.799 58.552C134.927 58.3707 135.028 58.232 135.103 58.136L139.183 52.568H140.527V61H139.167V54.536C139.081 54.696 138.985 54.8507 138.879 55C138.783 55.1387 138.692 55.2613 138.607 55.368L134.463 61ZM143.626 54.424C143.636 54.1147 143.642 53.8053 143.642 53.496C143.642 53.1867 143.642 52.8773 143.642 52.568H149.626V59.816H150.73V63.592H149.418V61H143.258V63.592H141.946V59.816C142.372 59.816 142.708 59.624 142.954 59.24C143.103 59.0267 143.22 58.7227 143.306 58.328C143.391 57.9227 143.455 57.496 143.498 57.048C143.551 56.5573 143.583 56.072 143.594 55.592C143.615 55.1013 143.626 54.712 143.626 54.424ZM148.266 53.768H144.938C144.927 54.216 144.916 54.7173 144.906 55.272C144.895 55.8267 144.874 56.344 144.842 56.824C144.831 57.0373 144.815 57.272 144.794 57.528C144.772 57.7733 144.735 58.0293 144.682 58.296C144.639 58.552 144.57 58.8133 144.474 59.08C144.388 59.3467 144.266 59.592 144.106 59.816H148.266V53.768ZM153.206 57.288C153.238 57.6613 153.313 58.008 153.43 58.328C153.558 58.6373 153.729 58.9093 153.942 59.144C154.155 59.3787 154.417 59.5653 154.726 59.704C155.046 59.832 155.414 59.896 155.83 59.896C156.033 59.896 156.241 59.88 156.454 59.848C156.678 59.8053 156.886 59.7413 157.078 59.656C157.27 59.56 157.441 59.4373 157.59 59.288C157.739 59.1387 157.851 58.9573 157.926 58.744H159.318C159.222 59.1493 159.057 59.5013 158.822 59.8C158.598 60.0987 158.326 60.344 158.006 60.536C157.697 60.728 157.35 60.872 156.966 60.968C156.582 61.0533 156.193 61.096 155.798 61.096C155.126 61.096 154.539 60.9893 154.038 60.776C153.547 60.5627 153.137 60.2693 152.806 59.896C152.475 59.512 152.23 59.0587 152.07 58.536C151.91 58.0027 151.83 57.4213 151.83 56.792C151.83 56.1627 151.915 55.5867 152.086 55.064C152.267 54.5307 152.523 54.072 152.854 53.688C153.185 53.304 153.59 53.0053 154.07 52.792C154.55 52.5787 155.121 52.472 155.782 52.472C156.454 52.472 157.035 52.6053 157.526 52.872C158.017 53.1387 158.411 53.4907 158.71 53.928C159.009 54.3547 159.217 54.8187 159.334 55.32C159.462 55.8213 159.515 56.2853 159.494 56.712C159.494 56.808 159.489 56.904 159.478 57C159.478 57.096 159.473 57.192 159.462 57.288H153.206ZM158.118 56.104C158.097 55.3893 157.873 54.808 157.446 54.36C157.019 53.912 156.449 53.688 155.734 53.688C155.339 53.688 154.993 53.752 154.694 53.88C154.395 54.008 154.145 54.184 153.942 54.408C153.739 54.632 153.579 54.8933 153.462 55.192C153.345 55.48 153.27 55.784 153.238 56.104H158.118ZM165.034 52.472C165.706 52.472 166.287 52.5787 166.778 52.792C167.269 53.0053 167.679 53.304 168.01 53.688C168.351 54.072 168.602 54.5307 168.762 55.064C168.933 55.5867 169.018 56.1627 169.018 56.792C169.018 57.4213 168.933 58.0027 168.762 58.536C168.602 59.0587 168.351 59.512 168.01 59.896C167.679 60.2693 167.263 60.5627 166.762 60.776C166.261 60.9893 165.674 61.096 165.002 61.096C164.33 61.096 163.743 60.9893 163.242 60.776C162.751 60.5627 162.335 60.2693 161.994 59.896C161.663 59.512 161.413 59.0587 161.242 58.536C161.082 58.0027 161.002 57.4213 161.002 56.792C161.002 56.1627 161.082 55.5867 161.242 55.064C161.413 54.5307 161.663 54.072 161.994 53.688C162.335 53.304 162.757 53.0053 163.258 52.792C163.759 52.5787 164.351 52.472 165.034 52.472ZM165.002 59.896C165.461 59.896 165.855 59.816 166.186 59.656C166.527 59.496 166.805 59.2773 167.018 59C167.242 58.712 167.402 58.3813 167.498 58.008C167.605 57.6347 167.658 57.2293 167.658 56.792C167.658 56.3653 167.605 55.9653 167.498 55.592C167.402 55.208 167.242 54.8773 167.018 54.6C166.805 54.312 166.527 54.088 166.186 53.928C165.855 53.768 165.461 53.688 165.002 53.688C164.543 53.688 164.149 53.768 163.818 53.928C163.487 54.088 163.21 54.312 162.986 54.6C162.773 54.8773 162.613 55.208 162.506 55.592C162.41 55.9653 162.362 56.3653 162.362 56.792C162.362 57.2293 162.41 57.6347 162.506 58.008C162.613 58.3813 162.773 58.712 162.986 59C163.21 59.2773 163.487 59.496 163.818 59.656C164.149 59.816 164.543 59.896 165.002 59.896Z" fill="#F2F2F2"/>
</svg>
