<svg width="75" height="31" viewBox="0 0 75 31" fill="none" xmlns="http://www.w3.org/2000/svg">
<path d="M49.4078 21.9379C49.0325 21.9011 48.6573 21.8766 48.3071 21.8643C47.9443 21.8398 47.5816 21.8275 47.2188 21.7907C46.8561 21.8275 46.4808 21.8398 46.1306 21.8643C45.7679 21.8766 45.3926 21.9011 45.0299 21.9379H44.9798C44.6046 21.9379 44.2043 21.9256 44.2043 21.57C44.2043 21.2267 44.417 21.1163 44.7672 20.9691C45.1675 20.7975 45.2175 20.5154 45.2175 19.5099V13.6729C45.2175 13.4767 45.205 13.3172 45.18 13.2559C45.1174 13.305 45.0049 13.538 44.8798 13.771L44.8047 13.9304L41.1648 21.3861C40.9772 21.754 40.7771 21.9379 40.5644 21.9379C40.3017 21.9379 40.1892 21.7172 40.1016 21.5332L40.0891 21.5087L36.5117 13.7832C36.3241 13.3663 36.2491 13.3172 36.224 13.3172C36.199 13.3172 36.1615 13.3172 36.1615 13.6606V18.4676C36.1615 19.4731 36.3366 20.4786 37.65 20.9691C37.9377 21.0795 38.2003 21.2267 38.2003 21.57C38.2003 21.9379 37.8001 21.9379 37.625 21.9379C37.2997 21.9379 36.9745 21.9011 36.6493 21.8643C36.3366 21.8275 36.0114 21.7907 35.6987 21.7907C35.386 21.7907 35.0608 21.8275 34.7481 21.8643C34.4353 21.9011 34.0976 21.9379 33.7724 21.9379C33.5973 21.9379 33.3096 21.9379 33.3096 21.57C33.3096 21.2512 33.5348 21.1408 33.7849 21.0059L33.8475 20.9691C34.723 20.5032 34.9982 20.0372 34.9982 18.9949V12.1278C34.9982 11.4165 34.7731 10.4846 34.1477 10.178C34.0476 10.129 33.9475 10.0799 33.86 10.0431C33.4472 9.85918 33.2471 9.76108 33.2471 9.46677C33.2471 9.20926 33.3346 9.09889 33.5723 9.09889C33.8475 9.09889 34.1352 9.12342 34.3978 9.13568C34.673 9.14794 34.9482 9.17247 35.2109 9.17247C35.4735 9.17247 35.7612 9.14794 36.0239 9.13568C36.2991 9.12342 36.5743 9.09889 36.8495 9.09889C37.2122 9.09889 37.3873 9.14794 37.5499 9.45451L41.1273 16.8612C41.2274 17.0696 41.3149 17.2413 41.3775 17.3762C41.49 17.6092 41.5776 17.7931 41.6151 17.8544C41.6651 17.8054 41.7652 17.6092 41.8528 17.4498C41.8903 17.3639 41.9403 17.2781 41.9904 17.1922L46.0055 9.55261C46.2057 9.17247 46.2932 9.08663 46.4934 9.08663C46.7685 9.08663 47.0562 9.11116 47.3189 9.12342C47.5941 9.13568 47.8693 9.1602 48.1319 9.1602C48.3946 9.1602 48.6823 9.13568 48.945 9.12342C49.2202 9.11116 49.4953 9.08663 49.7705 9.08663C49.8331 9.08663 49.8956 9.11115 49.9331 9.14794C49.9957 9.20926 50.0082 9.30736 49.9957 9.45451C49.9957 9.77334 49.683 9.8837 49.1576 10.0676L49.0576 10.1044C48.4446 10.3006 48.157 10.4478 48.157 11.5024V17.9771C48.157 19.4731 48.232 20.4173 49.6204 20.9446C49.9957 21.0918 50.2208 21.1899 50.2208 21.5455C50.2208 21.9379 49.783 21.9379 49.4078 21.9379ZM56.5875 22.0605C55.7495 22.0605 54.9865 21.8766 54.236 21.6926C53.9108 21.6068 53.5605 21.5332 53.2228 21.4597C53.1978 21.4597 53.1728 21.4474 53.1603 21.4474C52.9726 21.4106 52.6599 21.3615 52.5599 21.055L51.9094 18.5534C51.8969 18.5044 51.8844 18.443 51.8594 18.3817C51.8219 18.2346 51.7719 18.0752 51.7719 17.9403C51.7719 17.8422 51.8094 17.5233 52.2972 17.5233C52.685 17.5233 52.8351 17.9035 52.9476 18.1855C52.9726 18.2468 52.9977 18.3081 53.0227 18.3572C53.6231 19.608 54.8864 20.9569 56.6251 20.9569C57.9134 20.9569 58.814 20.1598 58.814 19.0194C58.814 17.8422 57.5757 17.413 56.1498 16.9225C54.2985 16.2725 51.9845 15.4755 51.9845 12.606C51.9845 10.5827 53.7231 8.93948 55.8496 8.93948C56.8377 8.93948 57.6007 9.22152 58.1511 9.41772C58.4888 9.54035 58.7515 9.63845 58.9641 9.63845C59.0392 9.63845 59.2018 9.56487 59.3269 9.51582C59.4895 9.44225 59.6271 9.3932 59.7396 9.3932C60.1274 9.3932 60.1774 9.65071 60.1774 9.87144C60.1524 10.5949 60.29 11.6373 60.3776 12.2504C60.4151 12.5324 60.4401 12.6673 60.4401 12.7286C60.4401 13.0597 60.24 13.2682 59.9273 13.2682C59.5145 13.2682 59.4019 12.9371 59.2643 12.5079L59.2393 12.4343C58.8265 11.159 57.313 10.0309 55.9872 10.0309C55.0115 10.0309 54.0359 10.5459 54.0359 11.5392C54.0359 12.7777 55.2867 13.1946 56.7376 13.6851C58.6764 14.335 60.8654 15.0585 60.8654 17.9403C60.8779 19.9146 59.2393 22.0605 56.5875 22.0605ZM69.1584 22.0605C66.0313 22.0605 62.7917 19.7674 62.7917 15.9169C62.7917 13.5993 63.5172 11.7354 64.9056 10.5214C66.0563 9.50356 67.6449 8.95174 69.3835 8.95174C70.7344 8.95174 71.8602 9.38093 72.6107 9.67524C72.9359 9.79786 73.2236 9.90823 73.3612 9.90823C73.4863 9.90823 73.5238 9.84691 73.5988 9.71202C73.6864 9.55261 73.799 9.34414 74.1492 9.34414C74.3493 9.34414 74.4869 9.46677 74.5245 9.66298L74.7996 12.1155C74.8121 12.2627 74.8372 12.4098 74.8622 12.557C74.8997 12.7532 74.9247 12.9371 74.9247 13.072C74.9247 13.354 74.7871 13.6483 74.5119 13.6483C74.2368 13.6483 74.0491 13.2927 73.9366 13.0843C73.924 13.0597 73.9115 13.0352 73.899 13.0229C72.8108 11.11 71.3598 10.0554 69.7963 10.0554C67.2321 10.0554 65.9813 11.7108 65.9813 15.1199C65.9813 18.0016 67.795 20.356 70.0215 20.356C71.3473 20.356 72.7108 19.7429 73.7865 18.676C73.824 18.6392 73.8615 18.5902 73.9115 18.5534C74.1117 18.3327 74.3744 18.0629 74.662 18.0629C74.7621 18.0629 74.9998 18.0997 74.9998 18.4553C75.0248 19.0439 73.0485 22.0605 69.1584 22.0605ZM12.2957 9.65071C12.4207 9.57714 12.4708 9.41772 12.3957 9.2951C12.3207 9.17247 12.1581 9.12342 12.033 9.197C11.9079 9.27057 11.8579 9.42999 11.9329 9.55261C12.008 9.67524 12.1706 9.72429 12.2957 9.65071ZM19.4379 9.18473C19.3128 9.11116 19.1502 9.1602 19.0752 9.28283C19.0001 9.40546 19.0501 9.56487 19.1752 9.63845C19.3003 9.71202 19.4629 9.66298 19.538 9.54035C19.613 9.41772 19.5755 9.25831 19.4379 9.18473ZM12.0205 21.803C12.1456 21.8766 12.3082 21.8275 12.3832 21.7049C12.4583 21.5823 12.4082 21.4229 12.2831 21.3493C12.1581 21.2757 11.9955 21.3248 11.9204 21.4474C11.8454 21.57 11.8954 21.7294 12.0205 21.803ZM8.30551 15.4632C8.30551 15.6104 8.43059 15.7207 8.56819 15.7207C8.71828 15.7207 8.83086 15.5981 8.83086 15.4632C8.83086 15.3161 8.70578 15.1934 8.56819 15.1934C8.41809 15.2057 8.30551 15.3161 8.30551 15.4632ZM19.1752 21.3493C19.0501 21.4229 19.0001 21.5823 19.0752 21.7049C19.1502 21.8275 19.3128 21.8766 19.4379 21.803C19.563 21.7294 19.613 21.57 19.538 21.4474C19.4754 21.3248 19.3128 21.2757 19.1752 21.3493ZM23.5781 17.5724L31.4709 15.5L23.5781 13.4276L26.7928 9.20926L21.4642 9.84692L22.1147 4.5985L17.8368 7.76226L15.7354 0L13.634 7.76226L9.3437 4.5985L9.99413 9.83465L4.6656 9.197L7.89274 13.4153L0 15.4877L7.86772 17.5724L4.64058 21.7907L9.96911 21.1531L9.31868 26.4015L13.609 23.2377L15.7104 31L17.8118 23.2377L22.1022 26.4138L21.4642 21.1653L26.7928 21.803L23.5781 17.5724ZM28.5064 15.5H23.8533C23.8533 15.0831 23.8158 14.6661 23.7533 14.2615L28.5064 15.5ZM2.93945 15.5H7.59254C7.59254 15.9169 7.63006 16.3339 7.6926 16.7385L2.93945 15.5ZM21.2266 6.14359L19.7881 8.5716C19.4004 8.35087 19.0627 8.19146 18.6499 8.03204L21.2266 6.14359ZM19.6756 9.62619C19.563 9.82239 19.3003 9.89597 19.0877 9.7856C18.8875 9.67524 18.8125 9.41772 18.9376 9.20926C19.0501 9.01305 19.3128 8.93948 19.5255 9.04984C19.7256 9.17247 19.8006 9.42999 19.6756 9.62619ZM15.7229 2.93078V7.50475C15.0225 7.50475 14.4596 7.60285 14.4596 7.60285L15.7229 2.93078ZM11.9454 9.04984C12.1456 8.93948 12.4082 9.00079 12.5333 9.20926C12.6459 9.40546 12.5834 9.66298 12.3707 9.7856C12.1706 9.90823 11.9079 9.83465 11.7828 9.63845C11.6702 9.42998 11.7453 9.17247 11.9454 9.04984ZM11.6577 8.5716C11.27 8.79233 10.9573 9.00079 10.6195 9.27057L10.2318 6.14359L11.6577 8.5716ZM8.99347 15.4632C8.99347 15.6962 8.80584 15.8801 8.56819 15.8801C8.33053 15.8801 8.1429 15.6962 8.1429 15.4632C8.1429 15.2302 8.33053 15.0463 8.56819 15.0463C8.80584 15.0463 8.99347 15.2302 8.99347 15.4632ZM6.21662 10.0922L8.68076 11.5024C8.45561 11.8825 8.293 12.2259 8.1429 12.6183L6.21662 10.0922ZM6.21662 20.9078L8.68076 19.4976C8.90591 19.8778 9.11855 20.1843 9.39373 20.5154L6.21662 20.9078ZM10.2318 24.8687L11.6702 22.4284C12.0455 22.6491 12.3957 22.8085 12.8085 22.968L10.2318 24.8687ZM11.7828 21.3615C11.8954 21.1531 12.1581 21.0918 12.3707 21.2021C12.5708 21.3125 12.6459 21.5823 12.5208 21.7785C12.4082 21.9747 12.1456 22.0483 11.9329 21.9379C11.7328 21.8275 11.6702 21.57 11.7828 21.3615ZM15.7229 28.0692V23.4953C16.1482 23.4953 16.5735 23.4585 16.9863 23.3972L15.7229 28.0692ZM19.5255 21.9502C19.3253 22.0605 19.0626 21.9992 18.9376 21.7907C18.8125 21.5945 18.8875 21.3248 19.0877 21.2144C19.2878 21.104 19.5505 21.1653 19.6756 21.3738C19.8006 21.57 19.7256 21.8275 19.5255 21.9502ZM19.7881 22.4284C20.1759 22.2077 20.4886 21.9992 20.8263 21.7294L21.2141 24.8687L19.7881 22.4284ZM15.7229 21.5823C12.3082 21.5823 9.54383 18.86 9.54383 15.5C9.54383 12.14 12.3082 9.41772 15.7229 9.41772C19.1377 9.41772 21.902 12.14 21.902 15.5C21.902 18.86 19.1377 21.5823 15.7229 21.5823ZM25.2417 10.0922L22.7651 11.5024C22.54 11.1222 22.3273 10.8157 22.0521 10.4846L25.2417 10.0922ZM22.4524 15.4877C22.4524 15.2547 22.64 15.0708 22.8777 15.0708C23.1153 15.0708 23.303 15.2547 23.303 15.4877C23.303 15.7207 23.1153 15.9047 22.8777 15.9047C22.64 15.9169 22.4524 15.7207 22.4524 15.4877ZM23.3155 18.3817L25.2417 20.9078L22.7651 19.4976C22.9903 19.1175 23.1529 18.7741 23.3155 18.3817ZM23.1404 15.4877C23.1404 15.3406 23.0153 15.218 22.8652 15.218C22.7151 15.218 22.6025 15.3406 22.6025 15.4877C22.6025 15.6349 22.7276 15.7575 22.8652 15.7575C23.0278 15.7575 23.1404 15.6349 23.1404 15.4877Z" fill="#F2F2F2"/>
</svg>
